<svg xmlns="http://www.w3.org/2000/svg" xmlns:xlink="http://www.w3.org/1999/xlink" width="196" zoomAndPan="magnify" viewBox="0 0 147 31.5" height="42" preserveAspectRatio="xMidYMid meet" version="1.0"><defs><g/><clipPath id="28d0073862"><path d="M 15.472656 5.574219 L 35.40625 5.574219 L 35.40625 25.507812 L 15.472656 25.507812 Z M 15.472656 5.574219 " clip-rule="nonzero"/></clipPath></defs><g clip-path="url(#28d0073862)"><path fill="#ffffff" d="M 33.996094 16.320312 C 33.769531 16.320312 33.578125 16.238281 33.417969 16.078125 C 33.257812 15.917969 33.179688 15.726562 33.179688 15.5 C 33.179688 15.273438 33.257812 15.082031 33.417969 14.921875 C 33.578125 14.761719 33.769531 14.683594 33.996094 14.683594 C 34.222656 14.683594 34.414062 14.761719 34.574219 14.921875 C 34.734375 15.082031 34.816406 15.273438 34.816406 15.5 C 34.816406 15.726562 34.734375 15.917969 34.574219 16.078125 C 34.417969 16.238281 34.222656 16.320312 33.996094 16.320312 Z M 27.898438 17.828125 C 27.660156 17.628906 27.40625 17.457031 27.128906 17.316406 C 27.269531 16.796875 27.34375 16.269531 27.359375 15.734375 L 28.800781 15.734375 C 28.75 16.539062 28.445312 17.234375 27.898438 17.828125 Z M 21.949219 15.734375 L 23.390625 15.734375 C 23.40625 16.269531 23.480469 16.796875 23.625 17.316406 C 23.347656 17.457031 23.089844 17.628906 22.851562 17.828125 C 22.304688 17.238281 22.003906 16.539062 21.949219 15.734375 Z M 22.851562 13.171875 C 23.089844 13.375 23.347656 13.542969 23.625 13.683594 C 23.480469 14.203125 23.40625 14.730469 23.390625 15.269531 L 21.949219 15.269531 C 22.003906 14.464844 22.304688 13.765625 22.851562 13.171875 Z M 25.609375 15.269531 L 25.609375 14.09375 C 25.980469 14.070312 26.34375 13.996094 26.695312 13.867188 C 26.816406 14.328125 26.878906 14.792969 26.894531 15.269531 Z M 25.609375 16.910156 L 25.609375 15.734375 L 26.894531 15.734375 C 26.878906 16.207031 26.816406 16.671875 26.695312 17.132812 C 26.34375 17.003906 25.980469 16.929688 25.605469 16.910156 Z M 26.980469 17.765625 C 26.84375 18.140625 26.648438 18.480469 26.386719 18.78125 C 26.820312 18.648438 27.210938 18.4375 27.558594 18.148438 C 27.378906 18.003906 27.1875 17.875 26.980469 17.765625 Z M 26.410156 17.917969 C 26.183594 18.378906 25.898438 18.679688 25.609375 18.789062 L 25.609375 17.375 C 25.933594 17.398438 26.25 17.464844 26.554688 17.574219 C 26.511719 17.695312 26.460938 17.808594 26.410156 17.917969 Z M 24.363281 18.78125 C 24.101562 18.480469 23.90625 18.140625 23.769531 17.765625 C 23.566406 17.875 23.371094 18.003906 23.191406 18.148438 C 23.539062 18.4375 23.929688 18.648438 24.363281 18.78125 Z M 25.144531 17.375 L 25.144531 18.789062 C 24.851562 18.679688 24.570312 18.375 24.34375 17.917969 C 24.289062 17.808594 24.242188 17.695312 24.195312 17.574219 C 24.5 17.460938 24.816406 17.394531 25.144531 17.375 Z M 25.144531 15.730469 L 25.144531 16.910156 C 24.769531 16.929688 24.40625 17.003906 24.054688 17.132812 C 23.933594 16.671875 23.867188 16.207031 23.855469 15.734375 Z M 25.144531 14.089844 L 25.144531 15.265625 L 23.855469 15.265625 C 23.871094 14.792969 23.9375 14.328125 24.054688 13.867188 C 24.40625 13.996094 24.769531 14.070312 25.144531 14.09375 Z M 23.769531 13.234375 C 23.90625 12.859375 24.101562 12.519531 24.363281 12.21875 C 23.929688 12.351562 23.539062 12.5625 23.191406 12.851562 C 23.371094 13 23.566406 13.128906 23.769531 13.238281 Z M 24.34375 13.082031 C 24.570312 12.621094 24.851562 12.320312 25.144531 12.210938 L 25.144531 13.625 C 24.816406 13.601562 24.5 13.535156 24.195312 13.425781 C 24.242188 13.304688 24.289062 13.191406 24.34375 13.082031 Z M 26.386719 12.21875 C 26.820312 12.351562 27.210938 12.5625 27.558594 12.847656 C 27.378906 12.996094 27.1875 13.125 26.980469 13.234375 C 26.84375 12.859375 26.648438 12.519531 26.386719 12.21875 Z M 25.605469 12.210938 L 25.605469 13.625 C 25.933594 13.601562 26.25 13.535156 26.554688 13.425781 C 26.511719 13.304688 26.460938 13.191406 26.40625 13.082031 C 26.179688 12.621094 25.898438 12.320312 25.605469 12.210938 Z M 28.800781 15.269531 C 28.75 14.464844 28.445312 13.765625 27.898438 13.171875 C 27.660156 13.375 27.40625 13.542969 27.128906 13.683594 C 27.269531 14.203125 27.34375 14.730469 27.359375 15.269531 Z M 32.613281 21.605469 C 32.613281 21.832031 32.535156 22.023438 32.375 22.183594 C 32.214844 22.34375 32.023438 22.421875 31.796875 22.421875 C 31.570312 22.421875 31.378906 22.34375 31.21875 22.183594 C 31.058594 22.023438 30.976562 21.832031 30.976562 21.605469 C 30.976562 21.378906 31.058594 21.1875 31.21875 21.027344 C 31.378906 20.867188 31.570312 20.785156 31.796875 20.785156 C 32.023438 20.785156 32.214844 20.867188 32.375 21.027344 C 32.535156 21.1875 32.613281 21.378906 32.613281 21.605469 Z M 29.769531 23.261719 C 29.769531 23.488281 29.691406 23.683594 29.53125 23.84375 C 29.371094 24.003906 29.179688 24.082031 28.953125 24.082031 C 28.726562 24.082031 28.53125 24.003906 28.371094 23.84375 C 28.214844 23.683594 28.132812 23.488281 28.132812 23.265625 C 28.132812 23.039062 28.214844 22.84375 28.371094 22.683594 C 28.53125 22.523438 28.726562 22.445312 28.953125 22.445312 C 29.175781 22.445312 29.371094 22.523438 29.53125 22.683594 C 29.691406 22.84375 29.769531 23.039062 29.769531 23.261719 Z M 28.132812 7.738281 C 28.132812 7.511719 28.214844 7.316406 28.371094 7.160156 C 28.53125 7 28.726562 6.917969 28.953125 6.917969 C 29.175781 6.917969 29.371094 7 29.53125 7.160156 C 29.691406 7.316406 29.769531 7.511719 29.769531 7.738281 C 29.769531 7.964844 29.691406 8.15625 29.53125 8.316406 C 29.371094 8.476562 29.175781 8.554688 28.953125 8.554688 C 28.726562 8.554688 28.53125 8.476562 28.375 8.316406 C 28.214844 8.15625 28.132812 7.964844 28.132812 7.738281 Z M 30.976562 9.394531 C 30.976562 9.167969 31.058594 8.976562 31.21875 8.816406 C 31.378906 8.65625 31.570312 8.578125 31.796875 8.578125 C 32.023438 8.578125 32.214844 8.65625 32.375 8.816406 C 32.535156 8.976562 32.613281 9.167969 32.613281 9.394531 C 32.613281 9.621094 32.535156 9.8125 32.375 9.972656 C 32.214844 10.132812 32.023438 10.214844 31.796875 10.214844 C 31.570312 10.214844 31.378906 10.132812 31.21875 9.972656 C 31.058594 9.8125 30.976562 9.621094 30.976562 9.394531 Z M 33.996094 14.21875 C 33.6875 14.21875 33.414062 14.316406 33.175781 14.515625 C 32.941406 14.714844 32.792969 14.964844 32.734375 15.269531 L 29.265625 15.269531 C 29.242188 14.855469 29.15625 14.457031 29.003906 14.074219 L 31.546875 14.074219 C 31.679688 14.074219 31.792969 14.027344 31.886719 13.933594 C 31.980469 13.839844 32.027344 13.726562 32.027344 13.589844 L 32.027344 10.65625 C 32.238281 10.617188 32.429688 10.53125 32.597656 10.394531 C 32.765625 10.261719 32.890625 10.09375 32.976562 9.898438 C 33.0625 9.699219 33.09375 9.492188 33.074219 9.277344 C 33.054688 9.0625 32.984375 8.867188 32.867188 8.6875 C 32.746094 8.507812 32.59375 8.367188 32.402344 8.265625 C 32.214844 8.164062 32.011719 8.113281 31.796875 8.113281 C 31.582031 8.113281 31.378906 8.164062 31.1875 8.265625 C 31 8.367188 30.84375 8.507812 30.726562 8.6875 C 30.605469 8.867188 30.539062 9.0625 30.519531 9.277344 C 30.5 9.492188 30.53125 9.699219 30.617188 9.898438 C 30.699219 10.09375 30.824219 10.261719 30.992188 10.394531 C 31.164062 10.53125 31.351562 10.617188 31.5625 10.65625 L 31.5625 13.589844 C 31.5625 13.601562 31.558594 13.609375 31.546875 13.609375 L 28.785156 13.609375 C 28.523438 13.140625 28.179688 12.742188 27.757812 12.414062 L 28.703125 12.414062 C 28.835938 12.414062 28.949219 12.367188 29.042969 12.273438 C 29.136719 12.179688 29.183594 12.066406 29.183594 11.933594 L 29.183594 9 C 29.394531 8.960938 29.585938 8.871094 29.753906 8.738281 C 29.921875 8.605469 30.046875 8.4375 30.132812 8.238281 C 30.214844 8.042969 30.25 7.835938 30.230469 7.621094 C 30.207031 7.40625 30.140625 7.210938 30.019531 7.03125 C 29.902344 6.851562 29.75 6.710938 29.558594 6.605469 C 29.367188 6.503906 29.167969 6.453125 28.949219 6.453125 C 28.734375 6.453125 28.535156 6.503906 28.34375 6.605469 C 28.152344 6.710938 28 6.851562 27.882812 7.03125 C 27.761719 7.210938 27.691406 7.40625 27.671875 7.621094 C 27.652344 7.835938 27.6875 8.042969 27.769531 8.238281 C 27.855469 8.4375 27.980469 8.605469 28.148438 8.738281 C 28.316406 8.871094 28.507812 8.960938 28.71875 9 L 28.71875 11.933594 C 28.71875 11.945312 28.710938 11.949219 28.699219 11.953125 L 26.988281 11.953125 C 26.691406 11.816406 26.382812 11.71875 26.0625 11.664062 C 25.742188 11.605469 25.417969 11.589844 25.09375 11.613281 C 24.765625 11.636719 24.449219 11.699219 24.140625 11.800781 C 23.832031 11.90625 23.539062 12.046875 23.265625 12.222656 C 22.988281 12.398438 22.742188 12.605469 22.519531 12.84375 C 22.296875 13.082031 22.109375 13.347656 21.953125 13.632812 C 21.796875 13.917969 21.675781 14.21875 21.597656 14.535156 C 21.515625 14.851562 21.476562 15.175781 21.476562 15.5 C 21.476562 15.828125 21.515625 16.148438 21.597656 16.464844 C 21.675781 16.78125 21.796875 17.082031 21.953125 17.367188 C 22.109375 17.65625 22.296875 17.917969 22.519531 18.15625 C 22.742188 18.394531 22.988281 18.601562 23.265625 18.777344 C 23.539062 18.957031 23.832031 19.09375 24.140625 19.199219 C 24.449219 19.300781 24.765625 19.367188 25.09375 19.390625 C 25.417969 19.414062 25.742188 19.394531 26.0625 19.339844 C 26.382812 19.28125 26.691406 19.183594 26.988281 19.050781 L 28.703125 19.050781 C 28.714844 19.050781 28.71875 19.054688 28.71875 19.066406 L 28.71875 22.003906 C 28.507812 22.042969 28.316406 22.128906 28.148438 22.261719 C 27.980469 22.398438 27.855469 22.5625 27.769531 22.761719 C 27.6875 22.960938 27.652344 23.167969 27.671875 23.382812 C 27.691406 23.59375 27.761719 23.792969 27.882812 23.972656 C 28 24.152344 28.152344 24.292969 28.34375 24.394531 C 28.535156 24.496094 28.734375 24.546875 28.953125 24.546875 C 29.167969 24.546875 29.371094 24.496094 29.558594 24.394531 C 29.75 24.292969 29.902344 24.152344 30.023438 23.972656 C 30.140625 23.792969 30.210938 23.59375 30.230469 23.382812 C 30.25 23.167969 30.214844 22.960938 30.132812 22.761719 C 30.046875 22.5625 29.921875 22.398438 29.753906 22.261719 C 29.585938 22.128906 29.394531 22.042969 29.183594 22.003906 L 29.183594 19.066406 C 29.183594 18.933594 29.136719 18.820312 29.042969 18.726562 C 28.949219 18.632812 28.835938 18.585938 28.703125 18.585938 L 27.757812 18.585938 C 28.179688 18.257812 28.523438 17.859375 28.785156 17.390625 L 31.546875 17.390625 C 31.558594 17.390625 31.5625 17.398438 31.5625 17.410156 L 31.5625 20.34375 C 31.351562 20.382812 31.164062 20.46875 30.996094 20.605469 C 30.828125 20.738281 30.699219 20.90625 30.617188 21.101562 C 30.53125 21.300781 30.5 21.507812 30.519531 21.722656 C 30.539062 21.9375 30.609375 22.132812 30.726562 22.3125 C 30.84375 22.492188 31 22.632812 31.1875 22.734375 C 31.378906 22.835938 31.582031 22.886719 31.796875 22.886719 C 32.011719 22.886719 32.214844 22.835938 32.402344 22.734375 C 32.59375 22.632812 32.746094 22.492188 32.867188 22.3125 C 32.984375 22.132812 33.054688 21.9375 33.074219 21.722656 C 33.09375 21.507812 33.058594 21.300781 32.976562 21.101562 C 32.890625 20.90625 32.765625 20.738281 32.597656 20.605469 C 32.429688 20.46875 32.238281 20.382812 32.027344 20.34375 L 32.027344 17.410156 C 32.027344 17.277344 31.980469 17.164062 31.886719 17.070312 C 31.792969 16.972656 31.679688 16.925781 31.546875 16.925781 L 29.003906 16.925781 C 29.15625 16.542969 29.242188 16.144531 29.269531 15.734375 L 32.738281 15.734375 C 32.765625 15.894531 32.824219 16.042969 32.910156 16.179688 C 32.996094 16.320312 33.105469 16.4375 33.238281 16.535156 C 33.371094 16.628906 33.515625 16.699219 33.671875 16.742188 C 33.832031 16.78125 33.992188 16.792969 34.152344 16.773438 C 34.316406 16.753906 34.46875 16.703125 34.613281 16.625 C 34.753906 16.546875 34.878906 16.445312 34.984375 16.320312 C 35.089844 16.195312 35.164062 16.054688 35.21875 15.898438 C 35.269531 15.746094 35.289062 15.585938 35.277344 15.421875 C 35.269531 15.257812 35.230469 15.105469 35.160156 14.957031 C 35.089844 14.808594 34.996094 14.679688 34.878906 14.566406 C 34.757812 14.453125 34.621094 14.367188 34.472656 14.308594 C 34.320312 14.25 34.160156 14.21875 34 14.21875 Z M 15.933594 14.058594 L 15.933594 16.941406 C 15.933594 17.035156 15.980469 17.085938 16.070312 17.097656 L 17.769531 17.304688 C 17.871094 17.316406 17.9375 17.375 17.964844 17.476562 C 18.140625 18.132812 18.398438 18.757812 18.738281 19.34375 C 18.792969 19.433594 18.785156 19.519531 18.722656 19.605469 L 17.667969 20.953125 C 17.613281 21.023438 17.617188 21.09375 17.679688 21.15625 L 19.71875 23.195312 C 19.785156 23.261719 19.851562 23.265625 19.921875 23.207031 L 21.269531 22.15625 C 21.355469 22.089844 21.441406 22.085938 21.53125 22.136719 C 22.121094 22.480469 22.742188 22.738281 23.398438 22.910156 C 23.5 22.9375 23.558594 23.003906 23.570312 23.109375 L 23.777344 24.804688 C 23.789062 24.894531 23.839844 24.941406 23.933594 24.941406 L 25.144531 24.941406 L 25.144531 20.398438 C 24.832031 20.386719 24.523438 20.339844 24.21875 20.265625 C 23.917969 20.195312 23.625 20.09375 23.339844 19.960938 C 23.054688 19.832031 22.785156 19.675781 22.53125 19.496094 C 22.277344 19.316406 22.042969 19.113281 21.828125 18.886719 C 21.609375 18.660156 21.417969 18.414062 21.25 18.152344 C 21.082031 17.890625 20.9375 17.613281 20.824219 17.324219 C 20.707031 17.035156 20.617188 16.734375 20.558594 16.429688 C 20.5 16.121094 20.472656 15.8125 20.472656 15.5 C 20.472656 15.1875 20.5 14.878906 20.558594 14.570312 C 20.617188 14.265625 20.707031 13.96875 20.824219 13.675781 C 20.9375 13.386719 21.082031 13.109375 21.25 12.847656 C 21.417969 12.585938 21.609375 12.339844 21.828125 12.117188 C 22.042969 11.890625 22.277344 11.6875 22.53125 11.503906 C 22.785156 11.324219 23.054688 11.167969 23.339844 11.039062 C 23.625 10.910156 23.917969 10.808594 24.21875 10.734375 C 24.523438 10.660156 24.832031 10.617188 25.144531 10.601562 L 25.144531 6.058594 L 23.933594 6.058594 C 23.839844 6.058594 23.789062 6.105469 23.777344 6.195312 L 23.570312 7.894531 C 23.558594 7.996094 23.5 8.0625 23.398438 8.089844 C 22.742188 8.265625 22.121094 8.523438 21.53125 8.863281 C 21.441406 8.917969 21.355469 8.910156 21.269531 8.847656 L 19.921875 7.792969 C 19.851562 7.738281 19.785156 7.742188 19.71875 7.804688 L 17.679688 9.84375 C 17.613281 9.910156 17.609375 9.976562 17.667969 10.046875 L 18.722656 11.394531 C 18.785156 11.480469 18.792969 11.566406 18.738281 11.65625 C 18.398438 12.246094 18.140625 12.867188 17.964844 13.523438 C 17.9375 13.625 17.871094 13.683594 17.769531 13.695312 L 16.070312 13.902344 C 15.980469 13.914062 15.933594 13.964844 15.933594 14.058594 Z M 16.015625 17.558594 L 17.558594 17.746094 C 17.726562 18.339844 17.960938 18.902344 18.257812 19.441406 L 17.300781 20.664062 C 17.207031 20.789062 17.164062 20.929688 17.171875 21.085938 C 17.183594 21.242188 17.242188 21.375 17.351562 21.484375 L 19.390625 23.523438 C 19.503906 23.632812 19.636719 23.695312 19.792969 23.703125 C 19.949219 23.714844 20.085938 23.667969 20.210938 23.574219 L 21.4375 22.617188 C 21.972656 22.914062 22.539062 23.148438 23.128906 23.320312 L 23.320312 24.859375 C 23.339844 25.015625 23.40625 25.144531 23.523438 25.25 C 23.640625 25.351562 23.777344 25.40625 23.933594 25.40625 L 25.375 25.40625 C 25.53125 25.40625 25.609375 25.328125 25.609375 25.171875 L 25.609375 20.171875 C 25.609375 20.019531 25.53125 19.941406 25.375 19.941406 C 25.082031 19.941406 24.796875 19.914062 24.507812 19.855469 C 24.222656 19.796875 23.945312 19.714844 23.675781 19.601562 C 23.40625 19.492188 23.152344 19.355469 22.910156 19.191406 C 22.667969 19.03125 22.441406 18.847656 22.234375 18.640625 C 22.03125 18.433594 21.84375 18.210938 21.683594 17.96875 C 21.519531 17.726562 21.382812 17.46875 21.273438 17.199219 C 21.160156 16.929688 21.078125 16.652344 21.019531 16.367188 C 20.964844 16.082031 20.933594 15.792969 20.933594 15.5 C 20.933594 15.207031 20.964844 14.921875 21.019531 14.632812 C 21.078125 14.347656 21.160156 14.070312 21.273438 13.800781 C 21.382812 13.53125 21.519531 13.277344 21.683594 13.035156 C 21.84375 12.792969 22.03125 12.566406 22.234375 12.359375 C 22.441406 12.15625 22.667969 11.96875 22.910156 11.808594 C 23.152344 11.644531 23.40625 11.507812 23.675781 11.398438 C 23.945312 11.285156 24.222656 11.203125 24.507812 11.144531 C 24.796875 11.089844 25.082031 11.058594 25.375 11.058594 C 25.53125 11.058594 25.609375 10.984375 25.609375 10.828125 L 25.609375 5.828125 C 25.609375 5.671875 25.53125 5.597656 25.375 5.597656 L 23.933594 5.597656 C 23.777344 5.597656 23.640625 5.648438 23.523438 5.75 C 23.40625 5.855469 23.339844 5.984375 23.320312 6.140625 L 23.128906 7.683594 C 22.539062 7.851562 21.972656 8.085938 21.4375 8.382812 L 20.210938 7.425781 C 20.085938 7.332031 19.949219 7.289062 19.792969 7.296875 C 19.636719 7.308594 19.503906 7.367188 19.390625 7.476562 L 17.351562 9.515625 C 17.242188 9.628906 17.183594 9.761719 17.171875 9.917969 C 17.164062 10.074219 17.207031 10.210938 17.300781 10.335938 L 18.257812 11.5625 C 17.960938 12.097656 17.726562 12.664062 17.558594 13.253906 L 16.015625 13.445312 C 15.859375 13.464844 15.730469 13.53125 15.625 13.648438 C 15.523438 13.765625 15.472656 13.902344 15.472656 14.058594 L 15.472656 16.941406 C 15.472656 17.097656 15.523438 17.234375 15.625 17.351562 C 15.730469 17.46875 15.859375 17.539062 16.015625 17.558594 Z M 16.015625 17.558594 " fill-opacity="1" fill-rule="evenodd"/></g><g fill="#ffffff" fill-opacity="1"><g transform="translate(40.461689, 21.064249)"><g><path d="M 8.703125 -10.78125 L 8.703125 -8.671875 L 5.859375 -8.671875 L 5.859375 0 L 3.21875 0 L 3.21875 -8.671875 L 0.375 -8.671875 L 0.375 -10.78125 Z M 8.703125 -10.78125 "/></g></g></g><g fill="#ffffff" fill-opacity="1"><g transform="translate(49.535825, 21.064249)"><g><path d="M 3.578125 -8.671875 L 3.578125 -6.5 L 7.09375 -6.5 L 7.09375 -4.46875 L 3.578125 -4.46875 L 3.578125 -2.109375 L 7.5625 -2.109375 L 7.5625 0 L 0.953125 0 L 0.953125 -10.78125 L 7.5625 -10.78125 L 7.5625 -8.671875 Z M 3.578125 -8.671875 "/></g></g></g><g fill="#ffffff" fill-opacity="1"><g transform="translate(57.842266, 21.064249)"><g><path d="M 0.5 -5.40625 C 0.5 -6.46875 0.726562 -7.414062 1.1875 -8.25 C 1.65625 -9.082031 2.300781 -9.734375 3.125 -10.203125 C 3.945312 -10.671875 4.878906 -10.90625 5.921875 -10.90625 C 7.203125 -10.90625 8.296875 -10.566406 9.203125 -9.890625 C 10.117188 -9.210938 10.734375 -8.289062 11.046875 -7.125 L 8.15625 -7.125 C 7.9375 -7.570312 7.628906 -7.914062 7.234375 -8.15625 C 6.847656 -8.394531 6.398438 -8.515625 5.890625 -8.515625 C 5.085938 -8.515625 4.429688 -8.226562 3.921875 -7.65625 C 3.421875 -7.09375 3.171875 -6.34375 3.171875 -5.40625 C 3.171875 -4.46875 3.421875 -3.710938 3.921875 -3.140625 C 4.429688 -2.578125 5.085938 -2.296875 5.890625 -2.296875 C 6.398438 -2.296875 6.847656 -2.414062 7.234375 -2.65625 C 7.628906 -2.894531 7.9375 -3.238281 8.15625 -3.6875 L 11.046875 -3.6875 C 10.734375 -2.519531 10.117188 -1.597656 9.203125 -0.921875 C 8.296875 -0.253906 7.203125 0.078125 5.921875 0.078125 C 4.878906 0.078125 3.945312 -0.15625 3.125 -0.625 C 2.300781 -1.09375 1.65625 -1.738281 1.1875 -2.5625 C 0.726562 -3.394531 0.5 -4.34375 0.5 -5.40625 Z M 0.5 -5.40625 "/></g></g></g><g fill="#ffffff" fill-opacity="1"><g transform="translate(69.54191, 21.064249)"><g><path d="M 10.296875 -10.78125 L 10.296875 0 L 7.671875 0 L 7.671875 -4.4375 L 3.578125 -4.4375 L 3.578125 0 L 0.953125 0 L 0.953125 -10.78125 L 3.578125 -10.78125 L 3.578125 -6.5625 L 7.671875 -6.5625 L 7.671875 -10.78125 Z M 10.296875 -10.78125 "/></g></g></g><g fill="#ffffff" fill-opacity="1"><g transform="translate(80.765585, 21.064249)"><g><path d="M 0.5 -5.40625 C 0.5 -6.46875 0.726562 -7.414062 1.1875 -8.25 C 1.65625 -9.082031 2.300781 -9.734375 3.125 -10.203125 C 3.945312 -10.671875 4.878906 -10.90625 5.921875 -10.90625 C 7.203125 -10.90625 8.296875 -10.566406 9.203125 -9.890625 C 10.117188 -9.210938 10.734375 -8.289062 11.046875 -7.125 L 8.15625 -7.125 C 7.9375 -7.570312 7.628906 -7.914062 7.234375 -8.15625 C 6.847656 -8.394531 6.398438 -8.515625 5.890625 -8.515625 C 5.085938 -8.515625 4.429688 -8.226562 3.921875 -7.65625 C 3.421875 -7.09375 3.171875 -6.34375 3.171875 -5.40625 C 3.171875 -4.46875 3.421875 -3.710938 3.921875 -3.140625 C 4.429688 -2.578125 5.085938 -2.296875 5.890625 -2.296875 C 6.398438 -2.296875 6.847656 -2.414062 7.234375 -2.65625 C 7.628906 -2.894531 7.9375 -3.238281 8.15625 -3.6875 L 11.046875 -3.6875 C 10.734375 -2.519531 10.117188 -1.597656 9.203125 -0.921875 C 8.296875 -0.253906 7.203125 0.078125 5.921875 0.078125 C 4.878906 0.078125 3.945312 -0.15625 3.125 -0.625 C 2.300781 -1.09375 1.65625 -1.738281 1.1875 -2.5625 C 0.726562 -3.394531 0.5 -4.34375 0.5 -5.40625 Z M 0.5 -5.40625 "/></g></g></g><g fill="#ffffff" fill-opacity="1"><g transform="translate(92.465229, 21.064249)"><g><path d="M 10.296875 -10.78125 L 10.296875 0 L 7.671875 0 L 7.671875 -4.4375 L 3.578125 -4.4375 L 3.578125 0 L 0.953125 0 L 0.953125 -10.78125 L 3.578125 -10.78125 L 3.578125 -6.5625 L 7.671875 -6.5625 L 7.671875 -10.78125 Z M 10.296875 -10.78125 "/></g></g></g><g fill="#ffffff" fill-opacity="1"><g transform="translate(103.688903, 21.064249)"><g><path d="M 6.046875 0.109375 C 5.035156 0.109375 4.109375 -0.125 3.265625 -0.59375 C 2.421875 -1.070312 1.75 -1.734375 1.25 -2.578125 C 0.75 -3.421875 0.5 -4.367188 0.5 -5.421875 C 0.5 -6.472656 0.75 -7.414062 1.25 -8.25 C 1.75 -9.09375 2.421875 -9.75 3.265625 -10.21875 C 4.109375 -10.695312 5.035156 -10.9375 6.046875 -10.9375 C 7.066406 -10.9375 8 -10.695312 8.84375 -10.21875 C 9.6875 -9.75 10.347656 -9.09375 10.828125 -8.25 C 11.316406 -7.414062 11.5625 -6.472656 11.5625 -5.421875 C 11.5625 -4.367188 11.316406 -3.421875 10.828125 -2.578125 C 10.335938 -1.734375 9.671875 -1.070312 8.828125 -0.59375 C 7.992188 -0.125 7.066406 0.109375 6.046875 0.109375 Z M 6.046875 -2.28125 C 6.910156 -2.28125 7.597656 -2.566406 8.109375 -3.140625 C 8.628906 -3.722656 8.890625 -4.484375 8.890625 -5.421875 C 8.890625 -6.367188 8.628906 -7.128906 8.109375 -7.703125 C 7.597656 -8.273438 6.910156 -8.5625 6.046875 -8.5625 C 5.179688 -8.5625 4.488281 -8.273438 3.96875 -7.703125 C 3.445312 -7.140625 3.1875 -6.378906 3.1875 -5.421875 C 3.1875 -4.472656 3.445312 -3.710938 3.96875 -3.140625 C 4.488281 -2.566406 5.179688 -2.28125 6.046875 -2.28125 Z M 6.046875 -2.28125 "/></g></g></g><g fill="#ffffff" fill-opacity="1"><g transform="translate(115.757046, 21.064249)"><g><path d="M 15.796875 -10.78125 L 12.984375 0 L 9.796875 0 L 8.078125 -7.09375 L 6.296875 0 L 3.125 0 L 0.390625 -10.78125 L 3.1875 -10.78125 L 4.75 -2.9375 L 6.671875 -10.78125 L 9.546875 -10.78125 L 11.390625 -2.9375 L 12.96875 -10.78125 Z M 15.796875 -10.78125 "/></g></g></g></svg>