<svg xmlns="http://www.w3.org/2000/svg" xmlns:xlink="http://www.w3.org/1999/xlink" width="392" zoomAndPan="magnify" viewBox="0 0 294 62.999997" height="84" preserveAspectRatio="xMidYMid meet" version="1.0"><defs><g/><clipPath id="334b58d048"><path d="M 29.101562 11.324219 L 69.601562 11.324219 L 69.601562 51.824219 L 29.101562 51.824219 Z M 29.101562 11.324219 " clip-rule="nonzero"/></clipPath></defs><g clip-path="url(#334b58d048)"><path fill="#ffffff" d="M 66.75 33.160156 C 66.53125 33.160156 66.320312 33.121094 66.113281 33.035156 C 65.910156 32.949219 65.730469 32.832031 65.574219 32.675781 C 65.417969 32.519531 65.300781 32.339844 65.214844 32.136719 C 65.128906 31.933594 65.089844 31.71875 65.089844 31.5 C 65.089844 31.277344 65.128906 31.066406 65.214844 30.863281 C 65.300781 30.660156 65.417969 30.480469 65.574219 30.324219 C 65.730469 30.167969 65.910156 30.046875 66.113281 29.960938 C 66.320312 29.878906 66.53125 29.835938 66.75 29.835938 C 66.972656 29.835938 67.183594 29.878906 67.386719 29.960938 C 67.589844 30.046875 67.769531 30.167969 67.925781 30.324219 C 68.082031 30.480469 68.203125 30.660156 68.289062 30.863281 C 68.371094 31.066406 68.414062 31.277344 68.414062 31.5 C 68.414062 31.71875 68.371094 31.929688 68.289062 32.136719 C 68.203125 32.339844 68.082031 32.519531 67.925781 32.675781 C 67.769531 32.832031 67.589844 32.949219 67.386719 33.035156 C 67.183594 33.121094 66.972656 33.160156 66.75 33.160156 Z M 54.355469 36.230469 C 53.875 35.820312 53.355469 35.472656 52.789062 35.191406 C 53.078125 34.136719 53.234375 33.0625 53.261719 31.96875 L 56.195312 31.96875 C 56.082031 33.605469 55.472656 35.027344 54.355469 36.230469 Z M 42.265625 31.972656 L 45.199219 31.972656 C 45.226562 33.0625 45.382812 34.136719 45.667969 35.191406 C 45.105469 35.476562 44.582031 35.820312 44.101562 36.230469 C 42.988281 35.027344 42.375 33.609375 42.265625 31.972656 Z M 44.101562 26.765625 C 44.582031 27.175781 45.105469 27.523438 45.667969 27.808594 C 45.382812 28.863281 45.226562 29.933594 45.199219 31.027344 L 42.265625 31.027344 C 42.375 29.390625 42.988281 27.972656 44.101562 26.769531 Z M 49.699219 31.027344 L 49.699219 28.636719 C 50.460938 28.589844 51.199219 28.441406 51.914062 28.183594 C 52.152344 29.117188 52.289062 30.0625 52.316406 31.027344 Z M 49.699219 34.363281 L 49.699219 31.972656 L 52.316406 31.972656 C 52.289062 32.933594 52.152344 33.882812 51.914062 34.8125 C 51.195312 34.558594 50.457031 34.40625 49.699219 34.363281 Z M 52.492188 36.097656 C 52.214844 36.863281 51.816406 37.554688 51.285156 38.167969 C 52.164062 37.898438 52.957031 37.46875 53.664062 36.882812 C 53.300781 36.582031 52.910156 36.320312 52.492188 36.097656 Z M 51.328125 36.414062 C 50.867188 37.34375 50.292969 37.960938 49.703125 38.179688 L 49.703125 35.308594 C 50.363281 35.351562 51.003906 35.488281 51.628906 35.714844 C 51.539062 35.957031 51.4375 36.191406 51.328125 36.414062 Z M 47.171875 38.167969 C 46.644531 37.554688 46.242188 36.863281 45.964844 36.097656 C 45.546875 36.320312 45.15625 36.582031 44.792969 36.882812 C 45.5 37.46875 46.292969 37.898438 47.171875 38.167969 Z M 48.757812 35.308594 L 48.757812 38.179688 C 48.164062 37.960938 47.589844 37.34375 47.128906 36.410156 C 47.023438 36.191406 46.921875 35.957031 46.832031 35.714844 C 47.453125 35.488281 48.09375 35.351562 48.757812 35.308594 Z M 48.757812 31.96875 L 48.757812 34.363281 C 47.996094 34.40625 47.257812 34.554688 46.542969 34.8125 C 46.300781 33.882812 46.167969 32.933594 46.140625 31.96875 Z M 48.757812 28.632812 L 48.757812 31.023438 L 46.144531 31.023438 C 46.167969 30.0625 46.304688 29.113281 46.546875 28.179688 C 47.261719 28.441406 47.996094 28.589844 48.757812 28.636719 Z M 45.964844 26.894531 C 46.242188 26.132812 46.644531 25.445312 47.171875 24.828125 C 46.292969 25.097656 45.5 25.527344 44.792969 26.113281 C 45.15625 26.414062 45.546875 26.675781 45.964844 26.898438 Z M 47.128906 26.582031 C 47.589844 25.648438 48.164062 25.03125 48.757812 24.816406 L 48.757812 27.6875 C 48.09375 27.644531 47.453125 27.507812 46.832031 27.28125 C 46.921875 27.035156 47.023438 26.804688 47.128906 26.582031 Z M 51.285156 24.824219 C 52.164062 25.097656 52.957031 25.527344 53.664062 26.113281 C 53.300781 26.414062 52.910156 26.675781 52.492188 26.894531 C 52.214844 26.132812 51.8125 25.445312 51.285156 24.828125 Z M 49.699219 24.816406 L 49.699219 27.6875 C 50.359375 27.644531 51.003906 27.507812 51.625 27.28125 C 51.535156 27.035156 51.433594 26.804688 51.328125 26.582031 C 50.867188 25.648438 50.292969 25.03125 49.699219 24.816406 Z M 56.191406 31.027344 C 56.082031 29.390625 55.472656 27.96875 54.355469 26.765625 C 53.875 27.175781 53.355469 27.523438 52.789062 27.808594 C 53.078125 28.863281 53.234375 29.933594 53.261719 31.027344 Z M 63.941406 43.90625 C 63.941406 44.125 63.898438 44.339844 63.8125 44.542969 C 63.730469 44.746094 63.609375 44.925781 63.453125 45.082031 C 63.296875 45.238281 63.117188 45.359375 62.914062 45.441406 C 62.710938 45.527344 62.5 45.570312 62.277344 45.570312 C 62.058594 45.570312 61.84375 45.527344 61.640625 45.441406 C 61.4375 45.359375 61.257812 45.238281 61.101562 45.082031 C 60.945312 44.925781 60.824219 44.746094 60.742188 44.542969 C 60.65625 44.339844 60.613281 44.125 60.613281 43.90625 C 60.613281 43.683594 60.65625 43.472656 60.742188 43.269531 C 60.824219 43.066406 60.945312 42.886719 61.101562 42.730469 C 61.257812 42.574219 61.4375 42.453125 61.640625 42.367188 C 61.84375 42.285156 62.058594 42.242188 62.277344 42.242188 C 62.5 42.242188 62.710938 42.285156 62.914062 42.371094 C 63.117188 42.453125 63.296875 42.574219 63.453125 42.730469 C 63.609375 42.886719 63.730469 43.066406 63.8125 43.269531 C 63.898438 43.472656 63.941406 43.683594 63.941406 43.90625 Z M 58.160156 47.277344 C 58.160156 47.496094 58.117188 47.707031 58.035156 47.914062 C 57.949219 48.117188 57.828125 48.296875 57.671875 48.453125 C 57.519531 48.609375 57.335938 48.730469 57.132812 48.8125 C 56.929688 48.898438 56.71875 48.941406 56.496094 48.941406 C 56.277344 48.941406 56.066406 48.898438 55.859375 48.8125 C 55.65625 48.730469 55.476562 48.609375 55.320312 48.453125 C 55.164062 48.296875 55.042969 48.117188 54.960938 47.914062 C 54.875 47.710938 54.832031 47.496094 54.832031 47.277344 C 54.832031 47.054688 54.875 46.84375 54.960938 46.640625 C 55.042969 46.4375 55.164062 46.257812 55.320312 46.101562 C 55.476562 45.945312 55.65625 45.824219 55.859375 45.738281 C 56.0625 45.65625 56.277344 45.613281 56.496094 45.613281 C 56.71875 45.613281 56.929688 45.65625 57.132812 45.738281 C 57.335938 45.824219 57.515625 45.945312 57.671875 46.101562 C 57.828125 46.257812 57.949219 46.4375 58.035156 46.640625 C 58.117188 46.84375 58.160156 47.054688 58.160156 47.277344 Z M 54.832031 15.722656 C 54.832031 15.5 54.875 15.289062 54.960938 15.085938 C 55.042969 14.882812 55.164062 14.699219 55.320312 14.546875 C 55.476562 14.390625 55.65625 14.269531 55.859375 14.183594 C 56.0625 14.101562 56.277344 14.058594 56.496094 14.058594 C 56.71875 14.058594 56.929688 14.101562 57.132812 14.183594 C 57.335938 14.269531 57.515625 14.390625 57.671875 14.542969 C 57.828125 14.699219 57.949219 14.878906 58.035156 15.085938 C 58.117188 15.289062 58.160156 15.5 58.160156 15.722656 C 58.160156 15.941406 58.117188 16.152344 58.035156 16.359375 C 57.949219 16.5625 57.828125 16.742188 57.671875 16.898438 C 57.515625 17.054688 57.335938 17.175781 57.132812 17.257812 C 56.929688 17.34375 56.71875 17.386719 56.496094 17.382812 C 56.277344 17.382812 56.0625 17.34375 55.859375 17.257812 C 55.65625 17.171875 55.476562 17.054688 55.320312 16.898438 C 55.164062 16.742188 55.046875 16.5625 54.960938 16.359375 C 54.875 16.152344 54.832031 15.941406 54.832031 15.722656 Z M 60.613281 19.09375 C 60.613281 18.871094 60.65625 18.660156 60.742188 18.457031 C 60.824219 18.25 60.945312 18.070312 61.101562 17.914062 C 61.257812 17.761719 61.4375 17.640625 61.640625 17.554688 C 61.84375 17.472656 62.058594 17.429688 62.277344 17.429688 C 62.496094 17.429688 62.710938 17.472656 62.914062 17.554688 C 63.117188 17.640625 63.296875 17.757812 63.453125 17.914062 C 63.609375 18.070312 63.730469 18.25 63.8125 18.457031 C 63.898438 18.660156 63.941406 18.871094 63.941406 19.089844 C 63.941406 19.3125 63.898438 19.523438 63.8125 19.726562 C 63.730469 19.933594 63.609375 20.113281 63.453125 20.269531 C 63.296875 20.421875 63.117188 20.542969 62.914062 20.628906 C 62.710938 20.710938 62.5 20.753906 62.277344 20.753906 C 62.058594 20.753906 61.84375 20.710938 61.640625 20.628906 C 61.4375 20.542969 61.257812 20.421875 61.101562 20.265625 C 60.945312 20.113281 60.828125 19.933594 60.742188 19.726562 C 60.65625 19.523438 60.613281 19.3125 60.613281 19.09375 Z M 66.75 28.890625 C 66.445312 28.894531 66.152344 28.945312 65.867188 29.046875 C 65.578125 29.152344 65.320312 29.300781 65.085938 29.496094 C 64.851562 29.691406 64.65625 29.921875 64.503906 30.183594 C 64.347656 30.445312 64.242188 30.726562 64.1875 31.027344 L 57.136719 31.027344 C 57.089844 30.1875 56.910156 29.378906 56.601562 28.601562 L 61.769531 28.601562 C 62.039062 28.597656 62.269531 28.503906 62.460938 28.3125 C 62.652344 28.121094 62.75 27.890625 62.75 27.621094 L 62.75 21.65625 C 62.960938 21.617188 63.164062 21.550781 63.359375 21.460938 C 63.558594 21.371094 63.738281 21.261719 63.90625 21.125 C 64.074219 20.992188 64.226562 20.839844 64.355469 20.667969 C 64.484375 20.496094 64.59375 20.308594 64.675781 20.113281 C 64.761719 19.914062 64.820312 19.707031 64.851562 19.496094 C 64.886719 19.28125 64.894531 19.070312 64.875 18.855469 C 64.855469 18.640625 64.808594 18.429688 64.738281 18.226562 C 64.667969 18.023438 64.570312 17.832031 64.453125 17.652344 C 64.332031 17.472656 64.195312 17.3125 64.035156 17.164062 C 63.875 17.019531 63.703125 16.898438 63.511719 16.792969 C 63.324219 16.691406 63.121094 16.617188 62.914062 16.5625 C 62.707031 16.511719 62.492188 16.484375 62.277344 16.484375 C 62.0625 16.484375 61.851562 16.511719 61.640625 16.5625 C 61.433594 16.617188 61.234375 16.691406 61.042969 16.792969 C 60.855469 16.898438 60.679688 17.019531 60.519531 17.164062 C 60.359375 17.3125 60.222656 17.472656 60.101562 17.652344 C 59.984375 17.832031 59.890625 18.023438 59.816406 18.226562 C 59.746094 18.429688 59.699219 18.640625 59.679688 18.855469 C 59.660156 19.070312 59.667969 19.28125 59.703125 19.496094 C 59.734375 19.707031 59.792969 19.914062 59.878906 20.113281 C 59.964844 20.308594 60.070312 20.496094 60.199219 20.667969 C 60.332031 20.839844 60.480469 20.992188 60.648438 21.125 C 60.816406 21.261719 61 21.371094 61.195312 21.460938 C 61.390625 21.550781 61.59375 21.617188 61.804688 21.65625 L 61.804688 27.621094 C 61.804688 27.644531 61.792969 27.65625 61.769531 27.65625 L 56.15625 27.65625 C 55.625 26.707031 54.929688 25.894531 54.070312 25.230469 L 55.988281 25.230469 C 56.257812 25.230469 56.488281 25.132812 56.679688 24.941406 C 56.871094 24.75 56.96875 24.519531 56.96875 24.25 L 56.96875 18.285156 C 57.179688 18.246094 57.382812 18.179688 57.578125 18.09375 C 57.773438 18.003906 57.957031 17.890625 58.125 17.753906 C 58.292969 17.621094 58.441406 17.46875 58.574219 17.296875 C 58.703125 17.125 58.808594 16.941406 58.894531 16.742188 C 58.980469 16.542969 59.039062 16.335938 59.070312 16.125 C 59.105469 15.914062 59.113281 15.699219 59.09375 15.484375 C 59.074219 15.269531 59.027344 15.0625 58.957031 14.855469 C 58.882812 14.652344 58.789062 14.460938 58.671875 14.28125 C 58.550781 14.101562 58.414062 13.941406 58.253906 13.796875 C 58.09375 13.648438 57.921875 13.527344 57.730469 13.425781 C 57.539062 13.324219 57.339844 13.246094 57.132812 13.191406 C 56.921875 13.140625 56.710938 13.113281 56.496094 13.113281 C 56.28125 13.113281 56.066406 13.140625 55.859375 13.191406 C 55.652344 13.246094 55.453125 13.324219 55.261719 13.425781 C 55.070312 13.527344 54.898438 13.648438 54.738281 13.796875 C 54.578125 13.941406 54.441406 14.101562 54.320312 14.28125 C 54.203125 14.460938 54.109375 14.652344 54.035156 14.855469 C 53.964844 15.0625 53.917969 15.269531 53.898438 15.484375 C 53.878906 15.699219 53.886719 15.914062 53.921875 16.125 C 53.953125 16.335938 54.011719 16.542969 54.097656 16.742188 C 54.179688 16.941406 54.289062 17.125 54.417969 17.296875 C 54.550781 17.46875 54.699219 17.621094 54.867188 17.753906 C 55.035156 17.890625 55.214844 18.003906 55.414062 18.09375 C 55.609375 18.179688 55.8125 18.246094 56.023438 18.285156 L 56.023438 24.25 C 56.023438 24.273438 56.011719 24.285156 55.988281 24.285156 L 52.507812 24.285156 C 52.210938 24.148438 51.902344 24.03125 51.585938 23.933594 C 51.269531 23.835938 50.949219 23.757812 50.625 23.699219 C 50.300781 23.640625 49.972656 23.601562 49.644531 23.585938 C 49.3125 23.566406 48.984375 23.570312 48.65625 23.59375 C 48.324219 23.621094 48 23.664062 47.675781 23.726562 C 47.351562 23.792969 47.03125 23.878906 46.71875 23.980469 C 46.40625 24.085938 46.101562 24.210938 45.800781 24.351562 C 45.503906 24.496094 45.214844 24.65625 44.9375 24.835938 C 44.660156 25.015625 44.394531 25.210938 44.140625 25.421875 C 43.890625 25.632812 43.648438 25.859375 43.425781 26.101562 C 43.199219 26.34375 42.992188 26.597656 42.796875 26.867188 C 42.605469 27.132812 42.429688 27.414062 42.269531 27.703125 C 42.113281 27.992188 41.972656 28.292969 41.851562 28.597656 C 41.730469 28.90625 41.628906 29.21875 41.550781 29.539062 C 41.46875 29.859375 41.40625 30.183594 41.363281 30.511719 C 41.324219 30.839844 41.304688 31.167969 41.304688 31.5 C 41.304688 31.828125 41.324219 32.15625 41.363281 32.484375 C 41.40625 32.8125 41.46875 33.136719 41.550781 33.457031 C 41.628906 33.777344 41.730469 34.089844 41.851562 34.398438 C 41.972656 34.707031 42.113281 35.003906 42.269531 35.292969 C 42.429688 35.585938 42.605469 35.863281 42.796875 36.132812 C 42.992188 36.398438 43.199219 36.652344 43.425781 36.894531 C 43.648438 37.136719 43.890625 37.363281 44.140625 37.578125 C 44.394531 37.789062 44.660156 37.984375 44.9375 38.164062 C 45.214844 38.339844 45.503906 38.5 45.800781 38.644531 C 46.101562 38.789062 46.40625 38.910156 46.71875 39.015625 C 47.03125 39.121094 47.351562 39.203125 47.675781 39.269531 C 48 39.335938 48.324219 39.378906 48.65625 39.402344 C 48.984375 39.425781 49.3125 39.429688 49.644531 39.410156 C 49.972656 39.394531 50.300781 39.355469 50.625 39.296875 C 50.949219 39.242188 51.269531 39.164062 51.585938 39.0625 C 51.902344 38.964844 52.210938 38.847656 52.507812 38.710938 L 55.988281 38.710938 C 56.011719 38.710938 56.023438 38.726562 56.023438 38.75 L 56.023438 44.714844 C 55.8125 44.753906 55.609375 44.816406 55.414062 44.90625 C 55.21875 44.996094 55.035156 45.109375 54.867188 45.242188 C 54.699219 45.378906 54.550781 45.53125 54.417969 45.703125 C 54.289062 45.875 54.179688 46.058594 54.097656 46.257812 C 54.011719 46.457031 53.953125 46.660156 53.921875 46.875 C 53.886719 47.085938 53.878906 47.300781 53.898438 47.515625 C 53.917969 47.730469 53.964844 47.9375 54.035156 48.140625 C 54.109375 48.34375 54.203125 48.535156 54.320312 48.714844 C 54.441406 48.894531 54.578125 49.058594 54.738281 49.203125 C 54.898438 49.347656 55.070312 49.472656 55.261719 49.574219 C 55.453125 49.675781 55.652344 49.753906 55.859375 49.808594 C 56.070312 49.859375 56.28125 49.886719 56.496094 49.886719 C 56.710938 49.886719 56.925781 49.859375 57.132812 49.808594 C 57.34375 49.753906 57.542969 49.675781 57.730469 49.574219 C 57.921875 49.472656 58.097656 49.347656 58.253906 49.203125 C 58.414062 49.058594 58.554688 48.894531 58.671875 48.714844 C 58.789062 48.535156 58.886719 48.34375 58.957031 48.140625 C 59.027344 47.9375 59.074219 47.730469 59.09375 47.515625 C 59.113281 47.300781 59.105469 47.085938 59.074219 46.875 C 59.039062 46.660156 58.980469 46.457031 58.894531 46.257812 C 58.8125 46.058594 58.703125 45.875 58.574219 45.703125 C 58.445312 45.53125 58.296875 45.378906 58.125 45.242188 C 57.957031 45.109375 57.777344 44.996094 57.582031 44.90625 C 57.382812 44.816406 57.179688 44.753906 56.96875 44.714844 L 56.96875 38.75 C 56.96875 38.476562 56.871094 38.246094 56.679688 38.054688 C 56.488281 37.863281 56.257812 37.769531 55.988281 37.769531 L 54.070312 37.769531 C 54.929688 37.101562 55.625 36.292969 56.15625 35.339844 L 61.769531 35.339844 C 61.792969 35.339844 61.804688 35.355469 61.804688 35.378906 L 61.804688 41.34375 C 61.59375 41.382812 61.390625 41.445312 61.195312 41.535156 C 61 41.625 60.816406 41.738281 60.648438 41.871094 C 60.480469 42.007812 60.332031 42.160156 60.203125 42.332031 C 60.070312 42.503906 59.964844 42.6875 59.878906 42.886719 C 59.796875 43.082031 59.738281 43.289062 59.703125 43.503906 C 59.667969 43.714844 59.664062 43.929688 59.683594 44.144531 C 59.703125 44.355469 59.746094 44.566406 59.820312 44.769531 C 59.890625 44.972656 59.984375 45.164062 60.105469 45.34375 C 60.222656 45.523438 60.363281 45.683594 60.519531 45.832031 C 60.679688 45.976562 60.855469 46.097656 61.042969 46.203125 C 61.234375 46.304688 61.433594 46.378906 61.640625 46.433594 C 61.851562 46.484375 62.0625 46.511719 62.277344 46.511719 C 62.492188 46.511719 62.707031 46.484375 62.914062 46.433594 C 63.121094 46.378906 63.320312 46.304688 63.511719 46.203125 C 63.703125 46.097656 63.875 45.976562 64.035156 45.832031 C 64.195312 45.683594 64.332031 45.523438 64.453125 45.34375 C 64.570312 45.164062 64.664062 44.972656 64.738281 44.769531 C 64.808594 44.566406 64.851562 44.355469 64.871094 44.144531 C 64.890625 43.929688 64.886719 43.714844 64.851562 43.503906 C 64.820312 43.289062 64.761719 43.082031 64.675781 42.886719 C 64.589844 42.6875 64.484375 42.503906 64.355469 42.332031 C 64.222656 42.160156 64.074219 42.007812 63.90625 41.871094 C 63.738281 41.738281 63.558594 41.625 63.359375 41.535156 C 63.164062 41.445312 62.960938 41.382812 62.75 41.34375 L 62.75 35.378906 C 62.75 35.109375 62.652344 34.875 62.460938 34.683594 C 62.269531 34.496094 62.039062 34.398438 61.769531 34.398438 L 56.601562 34.398438 C 56.910156 33.617188 57.089844 32.808594 57.140625 31.972656 L 64.191406 31.972656 C 64.25 32.296875 64.367188 32.601562 64.542969 32.882812 C 64.71875 33.164062 64.941406 33.402344 65.210938 33.597656 C 65.476562 33.796875 65.773438 33.9375 66.09375 34.019531 C 66.414062 34.105469 66.738281 34.125 67.070312 34.085938 C 67.398438 34.046875 67.707031 33.945312 68 33.789062 C 68.292969 33.628906 68.542969 33.421875 68.757812 33.167969 C 68.96875 32.910156 69.125 32.625 69.230469 32.3125 C 69.332031 31.996094 69.375 31.671875 69.355469 31.339844 C 69.335938 31.007812 69.253906 30.695312 69.113281 30.394531 C 68.972656 30.09375 68.78125 29.828125 68.539062 29.601562 C 68.296875 29.375 68.023438 29.199219 67.714844 29.074219 C 67.40625 28.953125 67.085938 28.890625 66.753906 28.890625 Z M 30.042969 28.570312 L 30.042969 34.429688 C 30.042969 34.613281 30.132812 34.71875 30.320312 34.742188 L 33.769531 35.164062 C 33.980469 35.191406 34.113281 35.308594 34.167969 35.511719 C 34.523438 36.847656 35.046875 38.113281 35.742188 39.3125 C 35.847656 39.496094 35.835938 39.671875 35.703125 39.839844 L 33.566406 42.578125 C 33.449219 42.722656 33.457031 42.863281 33.589844 42.992188 L 37.734375 47.136719 C 37.863281 47.269531 38.003906 47.28125 38.148438 47.164062 L 40.886719 45.023438 C 41.054688 44.890625 41.230469 44.878906 41.414062 44.988281 C 42.609375 45.679688 43.878906 46.207031 45.214844 46.5625 C 45.417969 46.617188 45.535156 46.75 45.5625 46.960938 L 45.984375 50.410156 C 46.007812 50.59375 46.113281 50.683594 46.296875 50.683594 L 48.757812 50.683594 L 48.757812 41.457031 C 48.125 41.425781 47.5 41.335938 46.882812 41.1875 C 46.265625 41.039062 45.667969 40.832031 45.089844 40.566406 C 44.511719 40.304688 43.964844 39.988281 43.449219 39.621094 C 42.933594 39.25 42.453125 38.839844 42.015625 38.378906 C 41.578125 37.917969 41.1875 37.421875 40.84375 36.890625 C 40.5 36.355469 40.210938 35.792969 39.976562 35.203125 C 39.738281 34.613281 39.5625 34.007812 39.441406 33.386719 C 39.320312 32.761719 39.261719 32.132812 39.261719 31.5 C 39.261719 30.863281 39.320312 30.234375 39.441406 29.613281 C 39.5625 28.988281 39.738281 28.382812 39.976562 27.792969 C 40.210938 27.203125 40.5 26.644531 40.84375 26.109375 C 41.1875 25.574219 41.578125 25.078125 42.015625 24.617188 C 42.453125 24.160156 42.933594 23.746094 43.449219 23.378906 C 43.964844 23.011719 44.511719 22.695312 45.089844 22.429688 C 45.667969 22.167969 46.265625 21.960938 46.882812 21.8125 C 47.5 21.660156 48.125 21.570312 48.757812 21.542969 L 48.757812 12.3125 L 46.296875 12.3125 C 46.109375 12.3125 46.007812 12.402344 45.984375 12.589844 L 45.5625 16.039062 C 45.535156 16.25 45.417969 16.382812 45.214844 16.4375 C 43.878906 16.792969 42.609375 17.316406 41.414062 18.011719 C 41.230469 18.117188 41.054688 18.105469 40.886719 17.976562 L 38.148438 15.835938 C 38.003906 15.71875 37.863281 15.726562 37.734375 15.859375 L 33.589844 20.003906 C 33.457031 20.132812 33.449219 20.273438 33.566406 20.417969 L 35.703125 23.15625 C 35.835938 23.324219 35.847656 23.5 35.742188 23.683594 C 35.046875 24.882812 34.523438 26.148438 34.167969 27.484375 C 34.113281 27.6875 33.980469 27.804688 33.769531 27.832031 L 30.320312 28.253906 C 30.132812 28.277344 30.042969 28.382812 30.042969 28.566406 Z M 30.203125 35.679688 L 33.339844 36.0625 C 33.683594 37.265625 34.160156 38.414062 34.765625 39.507812 L 32.820312 41.996094 C 32.625 42.246094 32.539062 42.53125 32.558594 42.847656 C 32.578125 43.164062 32.699219 43.433594 32.921875 43.660156 L 37.066406 47.804688 C 37.292969 48.027344 37.5625 48.152344 37.878906 48.171875 C 38.199219 48.1875 38.480469 48.101562 38.730469 47.90625 L 41.222656 45.960938 C 42.316406 46.566406 43.464844 47.042969 44.667969 47.386719 L 45.050781 50.523438 C 45.089844 50.839844 45.230469 51.101562 45.46875 51.3125 C 45.703125 51.523438 45.984375 51.628906 46.300781 51.628906 L 49.230469 51.628906 C 49.359375 51.628906 49.46875 51.582031 49.5625 51.488281 C 49.65625 51.398438 49.699219 51.285156 49.699219 51.15625 L 49.699219 40.996094 C 49.699219 40.863281 49.65625 40.753906 49.5625 40.660156 C 49.46875 40.570312 49.359375 40.523438 49.230469 40.523438 C 48.636719 40.523438 48.050781 40.464844 47.46875 40.351562 C 46.886719 40.234375 46.324219 40.0625 45.777344 39.835938 C 45.226562 39.609375 44.707031 39.332031 44.214844 39.003906 C 43.722656 38.671875 43.265625 38.300781 42.847656 37.878906 C 42.429688 37.460938 42.054688 37.003906 41.726562 36.511719 C 41.394531 36.019531 41.117188 35.5 40.890625 34.953125 C 40.664062 34.40625 40.492188 33.839844 40.378906 33.257812 C 40.261719 32.679688 40.203125 32.089844 40.203125 31.5 C 40.203125 30.90625 40.261719 30.320312 40.378906 29.738281 C 40.492188 29.15625 40.664062 28.59375 40.890625 28.046875 C 41.117188 27.496094 41.394531 26.976562 41.726562 26.484375 C 42.054688 25.992188 42.429688 25.535156 42.847656 25.117188 C 43.265625 24.699219 43.722656 24.324219 44.214844 23.996094 C 44.707031 23.664062 45.226562 23.386719 45.777344 23.160156 C 46.324219 22.933594 46.886719 22.761719 47.46875 22.648438 C 48.050781 22.53125 48.636719 22.472656 49.230469 22.472656 C 49.359375 22.472656 49.46875 22.429688 49.5625 22.335938 C 49.65625 22.242188 49.699219 22.132812 49.699219 22.003906 L 49.699219 11.839844 C 49.699219 11.710938 49.65625 11.601562 49.5625 11.507812 C 49.46875 11.414062 49.359375 11.371094 49.230469 11.371094 L 46.296875 11.371094 C 45.980469 11.371094 45.703125 11.476562 45.464844 11.6875 C 45.226562 11.894531 45.089844 12.160156 45.050781 12.472656 L 44.667969 15.609375 C 43.464844 15.953125 42.316406 16.429688 41.222656 17.035156 L 38.730469 15.089844 C 38.480469 14.894531 38.195312 14.808594 37.878906 14.828125 C 37.5625 14.847656 37.292969 14.96875 37.066406 15.195312 L 32.921875 19.335938 C 32.699219 19.5625 32.578125 19.832031 32.558594 20.148438 C 32.539062 20.46875 32.625 20.75 32.820312 21 L 34.765625 23.492188 C 34.160156 24.585938 33.683594 25.734375 33.339844 26.9375 L 30.203125 27.320312 C 29.890625 27.359375 29.625 27.5 29.417969 27.738281 C 29.207031 27.972656 29.101562 28.25 29.101562 28.570312 L 29.101562 34.429688 C 29.101562 34.746094 29.207031 35.023438 29.414062 35.261719 C 29.625 35.5 29.890625 35.640625 30.203125 35.679688 Z M 30.203125 35.679688 " fill-opacity="1" fill-rule="evenodd"/></g><g fill="#ffffff" fill-opacity="1"><g transform="translate(79.874547, 42.7972)"><g><path d="M 17.703125 -21.921875 L 17.703125 -17.640625 L 11.890625 -17.640625 L 11.890625 0 L 6.5625 0 L 6.5625 -17.640625 L 0.75 -17.640625 L 0.75 -21.921875 Z M 17.703125 -21.921875 "/></g></g></g><g fill="#ffffff" fill-opacity="1"><g transform="translate(98.310886, 42.7972)"><g><path d="M 7.28125 -17.640625 L 7.28125 -13.203125 L 14.421875 -13.203125 L 14.421875 -9.078125 L 7.28125 -9.078125 L 7.28125 -4.28125 L 15.359375 -4.28125 L 15.359375 0 L 1.9375 0 L 1.9375 -21.921875 L 15.359375 -21.921875 L 15.359375 -17.640625 Z M 7.28125 -17.640625 "/></g></g></g><g fill="#ffffff" fill-opacity="1"><g transform="translate(115.187463, 42.7972)"><g><path d="M 1.03125 -10.984375 C 1.03125 -13.148438 1.5 -15.082031 2.4375 -16.78125 C 3.375 -18.476562 4.675781 -19.800781 6.34375 -20.75 C 8.019531 -21.695312 9.921875 -22.171875 12.046875 -22.171875 C 14.648438 -22.171875 16.878906 -21.484375 18.734375 -20.109375 C 20.585938 -18.734375 21.828125 -16.859375 22.453125 -14.484375 L 16.578125 -14.484375 C 16.140625 -15.398438 15.519531 -16.097656 14.71875 -16.578125 C 13.914062 -17.054688 13.003906 -17.296875 11.984375 -17.296875 C 10.335938 -17.296875 9.003906 -16.722656 7.984375 -15.578125 C 6.972656 -14.429688 6.46875 -12.898438 6.46875 -10.984375 C 6.46875 -9.066406 6.972656 -7.535156 7.984375 -6.390625 C 9.003906 -5.253906 10.335938 -4.6875 11.984375 -4.6875 C 13.003906 -4.6875 13.914062 -4.925781 14.71875 -5.40625 C 15.519531 -5.882812 16.140625 -6.582031 16.578125 -7.5 L 22.453125 -7.5 C 21.828125 -5.125 20.585938 -3.253906 18.734375 -1.890625 C 16.878906 -0.523438 14.648438 0.15625 12.046875 0.15625 C 9.921875 0.15625 8.019531 -0.316406 6.34375 -1.265625 C 4.675781 -2.210938 3.375 -3.53125 2.4375 -5.21875 C 1.5 -6.90625 1.03125 -8.828125 1.03125 -10.984375 Z M 1.03125 -10.984375 "/></g></g></g><g fill="#ffffff" fill-opacity="1"><g transform="translate(138.958168, 42.7972)"><g><path d="M 20.921875 -21.921875 L 20.921875 0 L 15.578125 0 L 15.578125 -9.015625 L 7.28125 -9.015625 L 7.28125 0 L 1.9375 0 L 1.9375 -21.921875 L 7.28125 -21.921875 L 7.28125 -13.328125 L 15.578125 -13.328125 L 15.578125 -21.921875 Z M 20.921875 -21.921875 "/></g></g></g><g fill="#ffffff" fill-opacity="1"><g transform="translate(161.761823, 42.7972)"><g><path d="M 1.03125 -10.984375 C 1.03125 -13.148438 1.5 -15.082031 2.4375 -16.78125 C 3.375 -18.476562 4.675781 -19.800781 6.34375 -20.75 C 8.019531 -21.695312 9.921875 -22.171875 12.046875 -22.171875 C 14.648438 -22.171875 16.878906 -21.484375 18.734375 -20.109375 C 20.585938 -18.734375 21.828125 -16.859375 22.453125 -14.484375 L 16.578125 -14.484375 C 16.140625 -15.398438 15.519531 -16.097656 14.71875 -16.578125 C 13.914062 -17.054688 13.003906 -17.296875 11.984375 -17.296875 C 10.335938 -17.296875 9.003906 -16.722656 7.984375 -15.578125 C 6.972656 -14.429688 6.46875 -12.898438 6.46875 -10.984375 C 6.46875 -9.066406 6.972656 -7.535156 7.984375 -6.390625 C 9.003906 -5.253906 10.335938 -4.6875 11.984375 -4.6875 C 13.003906 -4.6875 13.914062 -4.925781 14.71875 -5.40625 C 15.519531 -5.882812 16.140625 -6.582031 16.578125 -7.5 L 22.453125 -7.5 C 21.828125 -5.125 20.585938 -3.253906 18.734375 -1.890625 C 16.878906 -0.523438 14.648438 0.15625 12.046875 0.15625 C 9.921875 0.15625 8.019531 -0.316406 6.34375 -1.265625 C 4.675781 -2.210938 3.375 -3.53125 2.4375 -5.21875 C 1.5 -6.90625 1.03125 -8.828125 1.03125 -10.984375 Z M 1.03125 -10.984375 "/></g></g></g><g fill="#ffffff" fill-opacity="1"><g transform="translate(185.532527, 42.7972)"><g><path d="M 20.921875 -21.921875 L 20.921875 0 L 15.578125 0 L 15.578125 -9.015625 L 7.28125 -9.015625 L 7.28125 0 L 1.9375 0 L 1.9375 -21.921875 L 7.28125 -21.921875 L 7.28125 -13.328125 L 15.578125 -13.328125 L 15.578125 -21.921875 Z M 20.921875 -21.921875 "/></g></g></g><g fill="#ffffff" fill-opacity="1"><g transform="translate(208.336183, 42.7972)"><g><path d="M 12.296875 0.21875 C 10.234375 0.21875 8.34375 -0.257812 6.625 -1.21875 C 4.914062 -2.175781 3.554688 -3.515625 2.546875 -5.234375 C 1.535156 -6.953125 1.03125 -8.878906 1.03125 -11.015625 C 1.03125 -13.160156 1.535156 -15.085938 2.546875 -16.796875 C 3.554688 -18.503906 4.914062 -19.835938 6.625 -20.796875 C 8.34375 -21.753906 10.234375 -22.234375 12.296875 -22.234375 C 14.359375 -22.234375 16.25 -21.753906 17.96875 -20.796875 C 19.6875 -19.835938 21.035156 -18.503906 22.015625 -16.796875 C 23.003906 -15.085938 23.5 -13.160156 23.5 -11.015625 C 23.5 -8.878906 23 -6.953125 22 -5.234375 C 21.007812 -3.515625 19.660156 -2.175781 17.953125 -1.21875 C 16.242188 -0.257812 14.359375 0.21875 12.296875 0.21875 Z M 12.296875 -4.65625 C 14.046875 -4.65625 15.445312 -5.234375 16.5 -6.390625 C 17.550781 -7.554688 18.078125 -9.097656 18.078125 -11.015625 C 18.078125 -12.953125 17.550781 -14.5 16.5 -15.65625 C 15.445312 -16.8125 14.046875 -17.390625 12.296875 -17.390625 C 10.523438 -17.390625 9.113281 -16.816406 8.0625 -15.671875 C 7.019531 -14.523438 6.5 -12.972656 6.5 -11.015625 C 6.5 -9.078125 7.019531 -7.53125 8.0625 -6.375 C 9.113281 -5.226562 10.523438 -4.65625 12.296875 -4.65625 Z M 12.296875 -4.65625 "/></g></g></g><g fill="#ffffff" fill-opacity="1"><g transform="translate(232.855582, 42.7972)"><g><path d="M 32.09375 -21.921875 L 26.375 0 L 19.921875 0 L 16.421875 -14.421875 L 12.796875 0 L 6.34375 0 L 0.78125 -21.921875 L 6.5 -21.921875 L 9.640625 -5.96875 L 13.546875 -21.921875 L 19.421875 -21.921875 L 23.171875 -5.96875 L 26.34375 -21.921875 Z M 32.09375 -21.921875 "/></g></g></g></svg>